<?xml version="1.0" encoding="utf-8"?>
<!-- Generator: Adobe Illustrator 20.0.0, SVG Export Plug-In . SVG Version: 6.00 Build 0)  -->
<svg version="1.1" id="Layer_1" xmlns="http://www.w3.org/2000/svg" xmlns:xlink="http://www.w3.org/1999/xlink" x="0px" y="0px"
	 viewBox="0 0 40 40" style="enable-background:new 0 0 40 40;" xml:space="preserve">
<style type="text/css">
	.st0{fill:#FFFFFF;}
</style>
<path class="st0" d="M26.4,8.7c-3.6,1.3-5.7,5.1-6.8,9.5c-1.1-4.4-3.2-8.1-6.8-9.5C5.4,6-1.9,18.6,8.2,20c0.9,0.1,2.4-1.4,2.8-1.3
	c-3.2-0.4-4.7-2.1-5.1-5.1c-0.2-1.7,0.9-3.9,2.8-3.8c1.6,0.1,2.9,1.1,4,2.1c5.6,5.5,5.3,16.4,5.4,23.4c0,0.3,0.7,0.3,1.5,0.1
	c0.7,0.1,1.5,0.2,1.5-0.1c0.1-7.1-0.2-17.9,5.4-23.4c1.1-1.1,2.4-2,4-2.1c1.9-0.1,3,2.1,2.8,3.8c-0.4,3-1.9,4.7-5.1,5.1
	c0.4-0.1,1.9,1.4,2.8,1.3C41.1,18.6,33.8,6,26.4,8.7z"/>
</svg>
