<?xml version="1.0" encoding="utf-8"?>
<!-- Generator: Adobe Illustrator 20.0.0, SVG Export Plug-In . SVG Version: 6.00 Build 0)  -->
<svg version="1.1" id="Layer_1" xmlns="http://www.w3.org/2000/svg" xmlns:xlink="http://www.w3.org/1999/xlink" x="0px" y="0px"
	 viewBox="0 0 40 40" style="enable-background:new 0 0 40 40;" xml:space="preserve">
<style type="text/css">
	.st0{fill:#FFFFFF;}
</style>
<g>
	<path class="st0" d="M11.7,23.2c2.9-1,5.7-2.5,5.9-5.9c-0.2-4-3.4-5.3-6.6-4.7c6.6-3.5,16.2-1,22.3,1.6c0.8,0.3,2.5-1.5,3-1.3
		C27.6,9.1,17.5,8.6,9,13.2c-2.3,1-4.2,2.9-4.3,5.4C4.5,22.3,8.6,24.3,11.7,23.2z M14.6,18.6c-0.1,1.1-0.3,1.9-0.9,2.9
		c-0.7,1-1.3,0.9-2.6,0.5c-2.1-0.6-3.3-2.7-3.4-4.7c-0.1-1,0.4-2,0.9-2.9c0.7-1,1.3-0.9,2.6-0.5C13.3,14.5,14.5,16.6,14.6,18.6z"/>
	<path class="st0" d="M28.2,18.1c-2.9,1-5.7,2.5-5.9,5.9c0.2,4,3.4,5.3,6.6,4.7c-6.6,3.5-16.2,1.1-22.3-1.6c-0.8-0.3-2.5,1.5-3,1.3
		c8.8,3.8,18.8,4.3,27.3-0.3c2.3-1,4.1-2.9,4.3-5.4C35.4,18.9,31.4,17,28.2,18.1z M25.3,22.7c0.1-1.1,0.3-1.9,0.9-2.9
		c0.7-1,1.3-0.9,2.6-0.5c2.1,0.6,3.3,2.7,3.4,4.7c0.1,1-0.4,2-0.9,2.9c-0.7,1-1.3,0.9-2.6,0.5C26.6,26.8,25.4,24.7,25.3,22.7z"/>
</g>
</svg>
