<?xml version="1.0" encoding="utf-8"?>
<!-- Generator: Adobe Illustrator 20.0.0, SVG Export Plug-In . SVG Version: 6.00 Build 0)  -->
<svg version="1.1" id="Layer_1" xmlns="http://www.w3.org/2000/svg" xmlns:xlink="http://www.w3.org/1999/xlink" x="0px" y="0px"
	 viewBox="0 0 40 40" style="enable-background:new 0 0 40 40;" xml:space="preserve">
<style type="text/css">
	.st0{fill:#FFFFFF;}
</style>
<path class="st0" d="M24.5,22.7c-1-1.7-1.5-3.8-1.8-5.7c-0.7-3.3-0.8-6.8-0.5-10.2l-0.1,0c-4.2,0.4-6.7,2.8-8.3,6
	c-1-4.1-3-7.5-7.1-6.2C6.2,6.8,3.1,8.3,4.5,7.9c6.4-2,7.1,12.7,7.1,16c0.2-0.1,0.3-0.2,0.5-0.2c0.9-0.3,2.7-0.7,2.7-1.2
	c0.1-3,0.5-5.9,1.3-8.8c0.6-2.1,1.5-4.1,3-5.6c-0.6,0.6-0.2,3.1-0.2,3.9c0,4.7,0.7,9.9,3.6,13.8c1.2,1.6,1.7,1.1,1.4,3.1
	c-0.4,2.8-2,4.9-5,5.1c-1,0.1-2.5,1.4-3,1.4c4.3-0.2,8.5-2.1,10.4-5.7c1.4,0.7,3.1,0.9,4.6,0.4c3-1,5.9-2.6,6.1-6.1
	C36.4,17,27.4,18.2,24.5,22.7z M32.7,28.2c-0.2,0.3-0.8,0.6-0.6,0.7c-0.6,0.1-1.3-0.1-1.9-0.2c-2.1-0.6-3.3-2.7-3.4-4.7
	c-0.1-1,0.4-2,0.9-2.9c0.2-0.3,0.8-0.6,0.6-0.7c0.6-0.1,1.3,0.1,1.9,0.2c2.1,0.6,3.3,2.7,3.4,4.7C33.6,26.4,33.3,27.3,32.7,28.2z"/>
</svg>
