<?xml version="1.0" encoding="utf-8"?>
<!-- Generator: Adobe Illustrator 20.0.0, SVG Export Plug-In . SVG Version: 6.00 Build 0)  -->
<svg version="1.1" id="Layer_1" xmlns="http://www.w3.org/2000/svg" xmlns:xlink="http://www.w3.org/1999/xlink" x="0px" y="0px"
	 viewBox="0 0 40 40" style="enable-background:new 0 0 40 40;" xml:space="preserve">
<style type="text/css">
	.st0{fill:#FFFFFF;}
</style>
<path class="st0" d="M24,30.1c-0.1-3.2,2.1-6.8,3.4-9.6c2.3-4.9,5.1-12.4-1.9-14.7c-2.6-0.9-5.8,0.2-8.1,1.5
	c-4.8,2.7-4.6,6.9-2.7,11c-0.4,0-0.8,0.1-1.2,0.3c-3.1,1-6,2.7-6.2,6.3c0.4,8.4,13.3,5.4,13.6-1.4c0.1-1.4-0.4-2.6-1.3-3.5
	c-2-2.9-3.5-5.7-3-9.3c0.6-4.7,5.9-4.2,8.6-2c4.9,4-0.5,12.4-2.3,16.5c-1.8,4-3.7,9.7,2.3,10.4c2.2,0.3,4.9-1.5,6.6-2.8
	c-0.5,0.4-2.3,0.7-3.1,1.3C26.2,35.9,24.1,31.8,24,30.1z M16.7,27.9C16,29,15.3,28.8,14,28.5c-2.2-0.6-3.5-2.8-3.6-5
	c0.1-1.1,0.3-2.1,1-3c0.7-1.1,1.4-0.9,2.8-0.5c2.2,0.6,3.5,2.8,3.6,5C17.7,26,17.3,27,16.7,27.9z"/>
</svg>
