<?xml version="1.0" encoding="utf-8"?>
<!-- Generator: Adobe Illustrator 20.0.0, SVG Export Plug-In . SVG Version: 6.00 Build 0)  -->
<svg version="1.1" id="Layer_1" xmlns="http://www.w3.org/2000/svg" xmlns:xlink="http://www.w3.org/1999/xlink" x="0px" y="0px"
	 viewBox="0 0 40 40" style="enable-background:new 0 0 40 40;" xml:space="preserve">
<style type="text/css">
	.st0{fill:#FFFFFF;}
</style>
<g>
	<path class="st0" d="M3.6,33.4c9.7,0,19.4,0,29.1,0c1.2,0,2.9-3,3.5-3c-9.7,0-19.4,0-29.1,0C6,30.4,4.3,33.4,3.6,33.4z"/>
	<path class="st0" d="M31.2,23.8c-1,0-2.1,0-3.1,0c-0.8,0-2.6,0.5-1.1-0.3c6.3-3.5,3.7-10.7-2-12.9c-7.4-2.9-19,6.4-14.6,13.2
		c-1.1,0-2.1,0-3.2,0c-1.2,0-2.9,3-3.5,3c3.4,0,6.8,0,10.3,0c0.7,0,3.4-3.2,3.6-3c-6.8-3.8-5.6-13.7,3.7-11.6
		c6.7,1.5,7.5,11,1.7,14.2c0,0-0.7,0.4-0.4,0.4c3.4,0,6.8,0,10.3,0c1.2,0,2.9-3,3.5-3C34.6,23.8,32.9,23.8,31.2,23.8z"/>
</g>
</svg>
