<?xml version="1.0" encoding="utf-8"?>
<!-- Generator: Adobe Illustrator 20.0.0, SVG Export Plug-In . SVG Version: 6.00 Build 0)  -->
<svg version="1.1" id="Layer_1" xmlns="http://www.w3.org/2000/svg" xmlns:xlink="http://www.w3.org/1999/xlink" x="0px" y="0px"
	 viewBox="0 0 40 40" style="enable-background:new 0 0 40 40;" xml:space="preserve">
<style type="text/css">
	.st0{fill:#FFFFFF;}
</style>
<path class="st0" d="M33.9,20c-2.7,0-5.3,0-8,0c-0.6-5.2,0.4-10.3,4.8-13.8c-0.6,0.5-2.7,0.8-3.6,1.5c-4,3.1-5.3,7.6-5,12.3
	c-1.7,0-3.4,0-5.2,0c0.6-5.2-0.4-10.4-4.9-13.9C11.4,5.6,8.7,8,8.4,7.8c4,3.1,5.2,7.6,5,12.2c-1.5,0-3,0-4.5,0
	c-1.2,0-2.9,1.7-3.5,1.7c2.6,0,5.3,0,7.9,0c-0.6,5-2.7,10.1-4.9,13.9c0.4-0.8,3.1-0.6,3.7-1.7c1.9-3.4,3.8-7.8,4.6-12.2
	c1.8,0,3.7,0,5.5,0c0.6,5,2.7,10.1,4.9,13.9c0.2,0.3,3.8-1.5,3.7-1.7c-1.9-3.4-3.8-7.8-4.6-12.2c1.4,0,2.8,0,4.2,0
	C31.5,21.7,33.3,20,33.9,20z"/>
</svg>
