<?xml version="1.0" encoding="utf-8"?>
<!-- Generator: Adobe Illustrator 20.0.0, SVG Export Plug-In . SVG Version: 6.00 Build 0)  -->
<svg version="1.1" id="Layer_1" xmlns="http://www.w3.org/2000/svg" xmlns:xlink="http://www.w3.org/1999/xlink" x="0px" y="0px"
	 viewBox="0 0 40 40" style="enable-background:new 0 0 40 40;" xml:space="preserve">
<style type="text/css">
	.st0{fill:#FFFFFF;}
</style>
<path class="st0" d="M30.2,32.4c-3-0.5-4.4-2-4.4-5.8c0-5.1,0-10.1,0-15.2c0-4-1.4-6.4-5.1-4.6c-1,0.5-1.8,1.1-2.4,1.9
	c-0.1-0.3-0.1-0.5-0.2-0.8c-1-3.2-3.7-1.8-5.8-0.4c-0.3,0.2-0.6,0.5-0.9,0.9C11,7.2,10.4,6.2,9.2,6c-1-0.2-2.4,1.5-3.2,1.4
	c2.2,0.4,2.5,3.7,2.5,6.5c0,0.1-0.1,0.1-0.1,0.2c0,0,0.1-0.1,0.1-0.1c0,1.3-0.1,2.5-0.1,3.2c0,3.9,0,7.8,0,11.8
	c0-0.2,3.2-0.7,3.2-1.4c0-3.7,0-7.3,0-11c0-0.9,0.1-2.5,0.1-4.2c0.6-1.6,1.3-3.1,2.3-4.5c0,0,0,0,0.1,0.1c0.6,0.6,0.8,1.5,1,2.2
	c0.3,1,0.4,2,0.4,3c0,5.3,0,10.5,0,15.8c0-0.2,3.2-0.7,3.2-1.4c0-3,0-6.1,0-9.1c0-1.9,0.1-3.9,0-5.9c0.4-1,0.8-1.9,1.2-2.8
	c0.3-0.7,0.7-1.3,1.2-2c0,0.1,0.1,0.3,0.3,0.5c2,2.7,1.2,7.9,1.2,10.9c0,3.3,0.2,6.6,0,9.9c-0.3,4.7,3.6,5,7.2,5
	c0.1,0,0.3,0,0.4-0.1v2.1l4.5-3l-4.5-3V32.4z"/>
</svg>
