<?xml version="1.0" encoding="utf-8"?>
<!-- Generator: Adobe Illustrator 20.0.0, SVG Export Plug-In . SVG Version: 6.00 Build 0)  -->
<svg version="1.1" id="Layer_1" xmlns="http://www.w3.org/2000/svg" xmlns:xlink="http://www.w3.org/1999/xlink" x="0px" y="0px"
	 viewBox="0 0 40 40" style="enable-background:new 0 0 40 40;" xml:space="preserve">
<style type="text/css">
	.st0{fill:#FFFFFF;}
</style>
<path class="st0" d="M26.7,11c-1.8,2.7-3.6,4.8-6.8,5.3c-3.1-0.5-5-2.7-6.8-5.3c-1.7-2.5-3.4-4.9-6.6-5.1c-0.9,0-2.4,1.4-2.9,1.4
	c3.4,0.2,5.1,2.9,6.8,5.5c1.7,2.6,3.7,4.5,6.7,4.9c-3.5,1.3-6.5,4.3-6.7,8.3c-0.3,5.8,6,9.2,11,7.5c4.2-1.4,7.8-4,8-8.8
	c-0.2-4.1-2.4-6.4-5.3-7.3c2.2-0.8,3.8-2.4,5.3-4.6c1.7-2.6,3.4-5.3,6.8-5.5c-0.5,0-2-1.4-2.9-1.4C30.1,6.1,28.4,8.4,26.7,11z
	 M20,17C20,17,20,17.1,20,17C20,17.1,19.9,17.1,20,17C19.9,17.1,19.9,17,20,17z M19,32.3c-3.4-0.9-5.3-4.3-5.4-7.6
	c-0.2-4.4,3.2-7.3,7.4-6.2c3.4,0.9,5.3,4.3,5.4,7.6C26.2,30.4,23.5,33.5,19,32.3z"/>
</svg>
